<svg version="1" xmlns="http://www.w3.org/2000/svg" width="933.333" height="933.333" viewBox="0 0 700.000000 700.000000"><path d="M327.8.5c-.1.1-4.1.5-8.8.9-8.7.7-10.5.9-22.5 2.7-11.6 1.8-12.3 1.9-19.2 3.5-18.4 4.2-24.8 5.9-36.9 9.9-45.9 15.3-87.1 39.1-122.9 70.9-35.9 31.9-68.1 75.5-86 116.6-2.5 5.8-5 11.4-5.5 12.5-4.5 9.3-15 42.7-17.6 56-.2 1.1-1 5.4-1.9 9.5-2.2 11.5-3 16-4.1 25.5-2.6 23-2.6 66.7.1 82.6.2 1.3.6 4.6.9 7.4.9 7.8 2.3 15.6 5.1 28.5 3.1 14.2 11 39.3 17.4 55.4 5 12.4 16.4 35.2 23.3 46.4 3.5 5.7 6.8 11.1 7.3 12 4 7 25.2 34.7 32 41.8 19.1 20.1 29.3 29.7 44.5 41.9 9.2 7.4 37 26.5 38.6 26.5.4 0 1.5.6 2.3 1.4 2.9 2.5 30.4 16.1 43.1 21.3 26.6 10.9 57.9 19.4 83.5 22.8 2.2.2 5.6.7 7.5 1 18.6 2.6 69.7 2.7 83.7.1 1.7-.3 10.4-1.6 14.8-2.1 32.4-4.1 86.9-23.5 116.7-41.5 3.7-2.2 7-4 7.3-4 .3 0 1.1-.5 1.8-1 .7-.6 6.2-4.3 12.2-8.3 25.3-16.8 49.2-37.6 67.8-59.2 3.3-3.9 6.3-7.2 6.7-7.5 1.7-1.3 18.1-23.6 24.5-33.5 21.9-33.6 40.6-77.9 48.1-114 1.6-7.9 5.4-30.1 5.9-35 .4-3.3.9-7.1 1.1-8.5.9-4.7 1.1-52.5.3-60.5-1.5-16.5-2.1-22-2.4-22.5-.2-.3-.6-3-1-6-.9-7.5-6.9-33.7-9.9-43.5C665 182.8 626.8 125 572.8 80c-22.5-18.7-58.2-40.7-81.8-50.5-3.6-1.4-8-3.3-9.8-4.1-11-5-41.9-14.5-58.7-17.9-4.4-.9-8.9-1.9-10-2.1-1.1-.2-3.8-.6-6-.9-2.2-.3-5.1-.7-6.5-1-1.3-.2-5.2-.7-8.6-1.1-3.3-.3-7.4-.8-9-1-3.2-.5-54-1.4-54.6-.9zM290 132.9c26.5 5.4 44.7 21.7 49.1 43.9 1.5 8 .6 21.1-1.9 28.5-5.7 16-11.3 22.3-75.1 83.6l-7.3 7.1 37.8.1c20.9 0 39 .2 40.4.5 6.1 1.1 11.1 7.3 11.5 14.2.5 7.1-2.4 12.5-7.9 15.1-4.1 2-5.8 2.1-61.7 2.1-35.7 0-58.8-.4-61.1-1-9.9-2.8-14.2-15.4-8.8-26 1.6-3.2 10.3-12.2 26.5-27.5 63.9-60.4 68.8-66.3 68.9-82.9.1-6.7-.3-8.9-2.4-13-4.6-9-14.6-14.7-26-14.8-14.5-.2-24.6 6.1-32 19.7-6.6 11.9-10.7 14.9-20.2 14.8-13-.2-19.4-10-15.4-23.4 3.9-13.4 13.3-24.9 26.7-32.6 5.1-2.9 15.7-7.1 19.9-7.8 1.9-.4 5.3-1 7.5-1.4 5.6-1 24.9-.6 31.5.8zm158-.4c6 1.1 17.2 5.4 23 8.8 13.4 7.9 26 24.4 32.1 42 6.3 18.4 9.1 44.5 6.7 64.7-1.3 11.2-1.9 15.3-2.3 16-.2.4-.7 2.2-1 4.1-1.2 6.6-6.3 19.9-10.6 27.5-11.8 20.7-31.1 33.6-53.8 36.1-20.6 2.2-37.8-1.8-53.3-12.5-3.9-2.7-11.4-10.2-16.1-16-5.5-7-13.7-26.4-15.7-37.5-.6-2.9-1.2-6.3-1.5-7.7-1-4.9-1.9-17.7-1.9-26.5-.1-35.5 9.3-62.8 27.7-80.8 9.6-9.3 23.5-16.4 35.7-18.2 2.5-.4 4.7-.8 4.9-1.1.6-.5 22 .3 26.1 1.1zm-6 239.9c1.9.3 5.3.8 7.5 1.2 2.2.3 7.3 1.9 11.3 3.5 17.3 6.8 29.2 18.5 38.3 37.4 7.8 16.3 11.3 34 11.3 57.5 0 46.2-16.1 79.7-44.9 93.4-12.7 6.1-17.4 7-34 7-13.7-.1-15.7-.3-23-2.8-11.3-3.9-19.3-8.7-26.7-15.9-10.4-10.1-17.1-21.5-22.2-37.5-2.9-9.3-3.2-10.9-4.9-24.2-2-15.4-1-42.6 1.9-52.2.3-1 .7-3 1-4.5 1.1-6.1 6.4-19.7 10.5-26.9 9.7-16.9 24.6-28.7 42.9-34 8.2-2.4 22.6-3.3 31-2zm-144.6 3c27 8.1 42.4 27.2 42.4 52.8 0 9.8-1.7 16.8-5.9 25.2-6 11.8-15.6 22.2-59.2 64-10.3 9.9-18.7 18.2-18.7 18.6 0 .3 17.3.6 38.4.6 36.2.1 38.5.2 42.2 2 5.3 2.8 8.5 8.9 7.9 15.5-.5 5.6-2.4 9-6.9 12.2l-3.1 2.2-58.5.2c-61.6.2-63.3.1-68.2-4.4-3.3-3-5.1-7.4-5.1-12.7.1-10 .4-10.4 36.3-44.6 28.2-26.8 48.1-46.6 52.1-51.8 8.8-11.5 11.7-23.4 8.2-33.7-6.7-19.9-36.8-24.7-52.2-8.4-2.2 2.4-5.5 7-7.2 10.2-4.2 7.8-9.8 13.4-14.4 14.3-13.9 2.6-23.8-5.8-22.1-18.7 2.4-17.9 19.3-35.7 40.6-42.7 15.3-5 38-5.3 53.4-.8z"/><path d="M423 164.8c-8.5 2.8-14.5 8.5-19.5 18.7-6.1 12.2-8.8 27-8.9 47.5 0 32.4 7.1 54.2 20.8 63.7 6.1 4.2 10.3 5.3 18.7 4.9 22.9-1.2 35.4-25.5 35.3-68.6-.1-16.7-1.3-26.4-4.5-37-4.3-14-11.6-24-20.7-28-5.8-2.6-15.3-3.1-21.2-1.2zM423.2 405.4c-18.6 6.1-28.6 29.3-28.6 66.6 0 44.8 14 69.3 39.1 68.5 22.7-.8 35.7-25.9 35.7-68.5-.1-33.9-8.1-56.1-23.3-64.3-6.3-3.5-16.3-4.4-22.9-2.3z"/></svg>